<svg version="1.1" id="Layer_1" xmlns="http://www.w3.org/2000/svg" xmlns:xlink="http://www.w3.org/1999/xlink" x="0px" y="0px"
	 width="100%" viewBox="0 0 976 1024" enable-background="new 0 0 976 1024" xml:space="preserve">
<path fill="#000000" opacity="1.000000" stroke="none" 
	d="
M450.608521,902.499939 
	C452.075256,906.621460 453.199738,910.466614 454.709412,914.154053 
	C460.700378,928.787476 448.790802,942.527222 436.626465,944.768066 
	C423.099121,947.260010 409.478027,949.538513 395.575623,948.090637 
	C386.824677,947.179138 378.046570,946.528625 369.212585,945.755066 
	C367.608765,949.200439 368.460022,952.228882 369.271088,955.248352 
	C372.866302,968.632812 366.564484,978.870850 352.981689,981.514526 
	C344.475830,983.170105 336.041260,981.376831 327.619446,980.556152 
	C322.333710,980.041077 317.082245,978.964722 311.884430,977.825256 
	C307.953613,976.963684 307.081482,978.498108 307.619324,982.018250 
	C308.170990,985.629028 309.135376,989.227661 308.731506,992.920410 
	C307.401184,1005.084167 298.656219,1012.349731 286.165741,1010.888000 
	C270.674042,1009.075134 255.872543,1004.432434 241.812500,997.745728 
	C233.457397,993.772156 229.744583,984.702942 232.698059,977.403442 
	C236.190460,968.771912 245.165878,964.717224 254.588882,967.621338 
	C260.420349,969.418457 265.986816,972.090088 272.286530,973.359497 
	C273.492950,968.713806 272.639618,964.398926 272.841522,960.149536 
	C273.320435,950.069153 278.433533,942.617065 286.719269,940.300964 
	C291.697693,938.909302 296.584686,939.575867 301.485748,940.955933 
	C310.929260,943.615112 320.359283,946.395203 330.241882,946.969910 
	C331.211914,947.026367 332.188049,946.977417 333.964630,946.977417 
	C333.964630,941.432434 333.839386,936.167297 333.991791,930.910095 
	C334.273621,921.187134 339.879089,913.067444 348.053467,911.245667 
	C353.254456,910.086548 358.636292,910.500977 363.951691,911.318298 
	C380.930542,913.928833 397.977875,915.684448 415.196472,914.969543 
	C416.500458,914.915466 417.861420,915.039795 419.466278,913.746704 
	C415.905396,903.643188 410.972046,894.130371 404.970001,885.149048 
	C393.763702,868.380127 378.452698,855.307312 364.962219,840.583557 
	C331.334473,803.881592 300.303375,765.228271 278.390137,720.074890 
	C267.650665,697.945618 261.087128,674.627380 260.101440,650.039246 
	C258.327972,605.798767 280.084595,557.640320 327.064178,538.843262 
	C337.045013,534.849792 347.579163,533.266235 357.938263,530.911072 
	C364.078613,529.515137 370.122437,527.803833 376.548492,527.482117 
	C385.581635,527.029846 392.639526,530.384949 396.395325,538.174622 
	C407.573151,561.357788 424.948090,579.888306 441.278900,599.172302 
	C452.112915,611.965454 465.739258,621.748718 479.429932,631.273499 
	C513.695129,655.112244 550.592834,673.785889 590.204529,686.996887 
	C616.855530,695.885376 644.320740,700.479797 672.271057,703.012024 
	C689.586853,704.580688 706.877869,705.647156 724.138855,703.956848 
	C747.510986,701.668091 770.525818,697.330566 793.065430,690.388184 
	C811.333618,684.761536 829.969177,680.378174 848.272705,674.791931 
	C867.510986,668.920410 886.414062,662.569580 901.132446,648.048096 
	C904.503967,644.721741 906.619202,640.159912 909.615845,636.408936 
	C920.775940,622.439514 927.820496,606.551941 930.996948,589.092529 
	C933.605652,574.753540 930.874023,560.723755 927.731628,546.606506 
	C921.820984,520.053162 906.981018,499.074768 888.932129,479.628601 
	C863.857605,452.613037 835.364929,429.679413 805.570801,408.215576 
	C791.622009,398.166840 778.090820,387.623718 767.306946,374.034424 
	C759.441772,364.123108 754.612000,352.613586 749.914246,341.005371 
	C746.167358,331.747009 742.074219,322.626526 738.030762,313.490814 
	C728.791992,292.616608 711.925598,278.735443 693.659912,266.543030 
	C668.526550,249.766525 640.608154,237.943970 614.298645,223.232574 
	C593.636353,211.678879 572.355652,201.366409 550.593689,192.054123 
	C543.227478,188.901978 538.273865,183.762329 538.329468,175.493393 
	C538.401733,164.742172 548.306946,157.393723 558.759399,160.241791 
	C570.550232,163.454575 581.409363,169.129517 592.207031,174.631821 
	C630.940125,194.369492 669.825317,213.889618 707.245239,236.034546 
	C727.701599,248.140549 745.919983,263.362396 759.114868,283.641052 
	C768.161133,297.543823 774.628296,312.865143 779.995911,328.363251 
	C787.196899,349.154694 800.878418,364.125977 818.076782,376.496613 
	C838.648499,391.293671 859.082153,406.297272 877.974365,423.171143 
	C900.229309,443.048340 921.558899,463.908844 938.453674,488.788910 
	C948.706909,503.888367 954.806519,520.720764 959.218140,538.274414 
	C961.285217,546.499329 963.504944,554.713501 964.237183,563.175598 
	C967.201721,597.435059 957.225830,627.894836 936.832947,655.228333 
	C936.434692,655.762146 936.144897,656.397217 935.677856,656.856140 
	C931.818909,660.647827 932.542236,663.498535 936.116333,667.652039 
	C954.964783,689.555908 959.044861,714.254272 948.697083,741.295593 
	C944.385254,752.563538 938.332092,762.890442 931.567200,772.803650 
	C924.460754,783.217285 920.159607,794.216919 922.969543,807.097717 
	C923.743591,810.646057 925.467712,812.955750 929.006470,814.325562 
	C933.964783,816.244751 938.732910,818.665283 943.542480,820.955200 
	C946.110535,822.177917 948.545105,823.658630 950.264648,826.020142 
	C953.057617,829.855713 953.066956,833.910400 950.367676,837.638550 
	C947.721130,841.294006 943.883118,842.138428 939.669922,840.551636 
	C935.775940,839.085083 931.807556,837.712830 928.130432,835.801758 
	C924.217163,833.767822 921.884644,833.971130 920.227417,838.575867 
	C918.830078,842.458496 916.825378,846.192993 914.619751,849.697388 
	C911.473999,854.695496 906.553284,856.273682 902.244141,854.182922 
	C898.071533,852.158508 896.321594,846.565063 898.221741,841.220764 
	C898.778687,839.654480 899.375488,838.097839 900.045410,836.577087 
	C903.894470,827.838867 907.185303,819.869385 904.190186,809.179504 
	C899.906616,793.890869 904.657227,779.067261 913.096558,765.405884 
	C921.535767,751.744568 931.449646,738.697876 934.130615,722.172546 
	C936.803467,705.697815 931.780518,691.651245 920.929688,679.363647 
	C919.131226,677.327026 917.455261,677.254944 915.413696,679.083557 
	C897.648132,694.996582 875.184753,700.556763 853.265747,707.460327 
	C828.809509,715.163025 804.075562,721.958313 779.189575,727.922791 
	C744.395630,736.261841 709.077332,739.817688 673.142822,735.776978 
	C649.474182,733.115479 625.869385,730.534851 602.734741,724.633606 
	C566.350342,715.352722 532.146362,700.724915 499.378845,682.598938 
	C477.611206,670.557861 456.975067,656.785767 437.639069,641.115234 
	C424.106079,630.147644 412.536255,617.247864 401.707031,603.690918 
	C392.145813,591.721313 382.086823,580.101135 374.245270,566.851990 
	C372.665070,564.182129 370.344788,564.165588 367.775879,564.226074 
	C336.072845,564.971985 310.605225,580.623901 298.656891,613.599304 
	C293.925873,626.656006 292.651703,639.999512 293.643036,653.857178 
	C295.921631,685.709595 309.643982,713.131653 326.716797,738.992676 
	C348.314606,771.707947 372.064636,802.822449 400.601349,829.979492 
	C422.231934,850.564270 439.760193,873.998108 450.608521,902.499939 
z"/>
<path fill="#000000" opacity="1.000000" stroke="none" 
	d="
M176.465942,416.535217 
	C185.697327,414.486145 194.665909,413.669678 203.611389,412.933075 
	C210.317490,412.380890 216.728088,413.972778 221.047318,419.658722 
	C228.001099,428.812866 224.029022,441.126862 212.830841,445.253723 
	C203.659164,448.633820 193.819748,448.418793 184.298508,449.832764 
	C167.521210,452.324280 150.694595,454.700806 133.696167,455.254425 
	C129.915756,455.377563 129.053299,456.885864 130.642227,460.319977 
	C136.189590,472.309296 142.810120,483.629608 150.927124,494.077209 
	C154.108337,498.171875 156.796753,502.552582 157.317307,507.937286 
	C158.149185,516.542358 154.695923,523.175842 148.010818,528.283569 
	C136.217239,537.294250 123.468567,544.909668 111.260612,553.315735 
	C106.117790,556.856934 100.740814,560.124268 96.112976,564.686584 
	C98.474846,567.673157 101.043877,569.483215 103.662994,571.190552 
	C122.208282,583.279968 139.771713,596.856384 159.335007,607.416565 
	C167.356354,611.746521 170.098846,621.419800 166.434448,629.470459 
	C162.721832,637.627075 154.610443,641.152893 145.695282,638.704163 
	C139.281219,636.942505 133.922424,633.206482 128.560226,629.613037 
	C110.019844,617.188477 91.630615,604.538025 73.209099,591.936646 
	C69.201180,589.195007 65.769768,585.770447 62.504833,582.204041 
	C50.812317,569.431763 51.657017,555.609924 64.975189,544.420532 
	C74.039391,536.805237 83.774567,530.074585 93.662926,523.574402 
	C100.483688,519.090759 107.270622,514.552734 114.170723,510.194244 
	C116.970154,508.425934 117.557442,506.880157 115.573532,503.859497 
	C105.760368,488.918396 98.360947,472.722748 90.928604,456.504303 
	C83.067299,439.349792 90.591103,424.631989 111.016930,422.787842 
	C123.117630,421.695282 135.258896,421.047974 147.356415,419.925720 
	C156.934952,419.037109 166.474670,417.730377 176.465942,416.535217 
z"/>
<path fill="#000000" opacity="1.000000" stroke="none" 
	d="
M330.159851,126.571442 
	C362.915039,131.242996 390.486176,162.684753 394.780426,192.559601 
	C397.149780,209.043015 393.801056,224.937637 385.724152,239.360275 
	C376.236633,256.301849 364.363403,271.545349 348.986786,283.710571 
	C340.248322,290.624023 332.121521,290.797424 323.608154,283.432159 
	C305.175262,267.485107 288.697693,249.568283 272.947235,231.015015 
	C262.925598,219.210037 253.349457,207.024277 243.671143,194.931168 
	C233.687912,182.457077 234.427536,171.563690 245.548431,159.851425 
	C263.018524,141.452347 284.064941,129.942200 309.277985,126.418938 
	C316.063324,125.470764 322.910889,125.783119 330.159851,126.571442 
M299.668732,164.160782 
	C294.035645,166.235062 288.578186,168.680389 283.662476,172.167618 
	C275.049744,178.277603 275.069244,178.303238 281.487946,186.760834 
	C282.392944,187.953293 283.272278,189.165359 284.185272,190.351624 
	C299.120056,209.756851 315.406036,227.955826 332.833466,245.155334 
	C335.629700,247.914978 337.477356,248.062454 339.986359,244.839722 
	C344.990387,238.412247 350.299500,232.238083 354.503693,225.204987 
	C370.099274,199.115677 353.974243,165.156113 323.890869,160.692123 
	C315.701813,159.476959 308.062805,161.551392 299.668732,164.160782 
z"/>
<path fill="#000000" opacity="1.000000" stroke="none" 
	d="
M139.759674,280.904663 
	C150.039963,261.157074 165.334442,247.988037 186.507080,241.822922 
	C229.709625,229.243042 276.063812,259.473053 280.245453,305.495392 
	C283.858246,345.257080 258.767761,375.600006 226.935959,384.767609 
	C186.161743,396.510590 142.896439,370.503601 134.212143,328.943359 
	C130.768173,312.461639 132.379822,296.535553 139.759674,280.904663 
M172.125916,292.657806 
	C163.917465,307.813416 164.303787,322.638916 174.279907,336.817383 
	C184.229752,350.958557 198.722656,355.484589 214.749802,352.325226 
	C239.979950,347.351593 256.015533,317.652832 240.774231,292.538910 
	C225.175598,266.836090 188.671494,266.588989 172.125916,292.657806 
z"/>
<path fill="#000000" opacity="1.000000" stroke="none" 
	d="
M36.840851,699.973389 
	C51.782722,672.732727 74.815132,659.680603 105.217842,659.923279 
	C133.945068,660.152588 162.680801,681.559509 171.395889,708.883484 
	C185.842743,754.177979 157.109543,798.668945 112.888672,805.816223 
	C78.151863,811.430603 41.514812,787.813477 31.872265,753.695312 
	C26.628448,735.141113 28.564564,717.519958 36.840851,699.973389 
M69.834831,711.359070 
	C59.677227,727.748474 61.306519,746.271606 74.124992,760.133179 
	C85.299164,772.216675 105.298820,775.598022 120.066963,767.900635 
	C134.900314,760.169250 142.610382,745.119263 140.759842,727.508301 
	C139.158401,712.267700 127.425270,698.683838 111.000381,694.932312 
	C96.689079,691.663513 80.312569,696.177795 69.834831,711.359070 
z"/>
<path fill="#000000" opacity="1.000000" stroke="none" 
	d="
M440.925201,24.715363 
	C479.923706,16.036251 518.744324,40.837452 526.872803,79.269630 
	C535.359375,119.395126 508.988098,158.990906 468.589386,165.519180 
	C429.420074,171.848785 398.009033,146.284119 388.449066,115.860077 
	C376.037262,76.360023 400.694397,33.610115 440.925201,24.715363 
M458.359070,131.926407 
	C471.878418,131.228027 482.257843,124.898788 489.209778,113.541718 
	C499.486725,96.752663 493.934845,73.970619 477.428070,63.297287 
	C460.647308,52.446720 437.661377,56.634956 426.361603,72.975403 
	C418.009430,85.053398 417.029480,98.115944 423.594574,111.271294 
	C430.483002,125.074539 442.123291,131.673599 458.359070,131.926407 
z"/>
<path fill="#000000" opacity="1.000000" stroke="none" 
	d="
M83.563766,944.440796 
	C96.531731,955.179504 111.185989,959.462158 127.221893,956.159912 
	C149.620407,951.547485 164.137039,928.425659 160.287918,905.186401 
	C158.508972,894.445740 154.533096,884.746155 147.589996,876.286743 
	C145.380508,873.594666 143.228561,870.846985 141.850967,867.559204 
	C139.184952,861.196533 140.530609,853.873840 145.398254,849.094116 
	C150.029572,844.546509 158.556335,843.257446 164.461411,846.177795 
	C168.451401,848.151001 171.386307,851.309082 174.144180,854.674255 
	C187.278519,870.700500 194.449402,889.356445 194.865936,909.776489 
	C195.684708,949.916504 172.106186,980.584106 135.597992,989.614685 
	C103.532562,997.546204 67.312073,983.492554 46.821815,955.058228 
	C29.374737,930.846863 23.550749,904.319519 31.850111,875.174194 
	C34.903366,864.452026 42.442165,858.163818 52.100933,858.700562 
	C60.112965,859.145874 67.196419,866.774048 66.760651,874.796082 
	C66.572449,878.260620 66.126869,881.719482 65.221573,885.135681 
	C59.019760,908.538757 65.696495,928.061829 83.563766,944.440796 
z"/>
<path fill="#000000" opacity="1.000000" stroke="none" 
	d="
M710.620850,376.666412 
	C714.019531,358.356934 731.712219,349.427246 746.286011,358.284851 
	C756.155334,364.283234 760.024902,376.245544 755.575623,387.002808 
	C751.065308,397.907928 739.398499,404.240906 728.506226,401.696533 
	C716.722412,398.943878 709.862549,389.521393 710.620850,376.666412 
z"/>
<path fill="#000000" opacity="1.000000" stroke="none" 
	d="
M597.421997,475.330139 
	C591.927124,463.682648 594.266907,451.764435 603.168091,444.744537 
	C612.001892,437.777740 623.838928,437.526184 632.260681,444.422699 
	C639.589905,450.424622 642.500671,458.278748 640.362610,467.576477 
	C638.060181,477.588928 631.786743,484.173920 621.651672,486.128540 
	C611.496216,488.087067 603.347107,484.379883 597.421997,475.330139 
z"/>
<path fill="#000000" opacity="1.000000" stroke="none" 
	d="
M834.840210,587.754517 
	C836.205566,593.239807 833.833618,596.494507 829.363770,598.402222 
	C823.275574,601.000610 816.919617,601.649963 810.386169,600.455505 
	C806.028870,599.658813 803.670654,596.716919 803.054077,592.692261 
	C802.439209,588.678894 804.583618,585.725098 808.122253,583.798584 
	C816.177490,579.413269 830.019775,581.275696 834.840210,587.754517 
z"/>
<path fill="#000000" opacity="1.000000" stroke="none" 
	d="
M876.824402,522.191589 
	C878.792236,517.976685 881.838135,515.864624 886.079285,516.365479 
	C890.549011,516.893188 892.855957,519.962952 894.051758,524.159180 
	C895.497986,529.233765 894.683777,534.082642 892.514587,538.631348 
	C890.298706,543.278198 884.309082,544.415710 881.414307,540.541260 
	C877.522827,535.332764 874.754028,529.466858 876.824402,522.191589 
z"/>
</svg>